<svg width="67" height="62" viewBox="0 0 67 62" fill="none" xmlns="http://www.w3.org/2000/svg">
<path d="M21.107 9.82599C9.58299 6.04343 1.60021 17.3911 1 23.6954C1 29.6845 8.20251 21.4889 6.40188 27.478C4.60125 33.467 10.0031 44.1843 21.107 46.0756C32.2109 47.9669 34.0115 44.1843 52.3179 57.1081C70.6243 70.0319 57.7198 47.6517 64.3221 35.3583C70.9244 23.065 56.8195 9.82599 43.3147 11.0868C29.81 12.3477 35.512 14.5542 21.107 9.82599Z" fill="#F5F5F5" stroke="#DADADA" stroke-width="0.307377" stroke-linecap="round"/>
<path d="M3.10074 2.05711C58.0199 -8.66017 -11.9045 66.0455 25.3085 49.024" stroke="#575353" stroke-width="0.614755" stroke-linecap="round"/>
<path d="M27.87 33.8859C28.0304 36.3519 28.1936 40.8109 27.3616 43.1894C25.4893 48.5418 28.5959 38.7972 31.8236 38.8623C35.0513 38.9275 30.306 43.8648 34.5329 43.6503" stroke="#575353" stroke-width="0.922132" stroke-linecap="round"/>
<path d="M28.5257 27.0055C27.9716 27.5876 27.5221 29.0051 28.5257 29.3062C31.5924 30.2265 30.7162 27.4657 30.2781 27.0055C29.84 26.5455 28.8204 26.696 28.5257 27.0055Z" fill="#D9D9D9"/>
<path d="M12.0181 27.5895L24.9559 40.9868" stroke="#DADADA" stroke-width="0.614755" stroke-linecap="round"/>
<path d="M20.2095 29.4821L16.6025 38.3055" stroke="#DADADA" stroke-width="0.614755" stroke-linecap="square"/>
<path d="M38.213 30.7823C38.213 34.028 39.2687 40.3145 43.4919 39.4945C47.7151 38.6745 46.7598 31.6364 45.7543 28.2198" stroke="#DADADA" stroke-width="0.614755" stroke-linecap="round"/>
<path d="M29.568 33.5714L29.6612 33.8718L29.7544 34.1722" stroke="#DADADA" stroke-width="0.5015" stroke-linecap="round"/>
<path d="M29.568 38.6149L29.6612 38.9152L29.7544 39.2156" stroke="#DADADA" stroke-width="0.5015" stroke-linecap="round"/>
<path d="M29.76 37.9866L29.6609 38.2843L29.5619 38.5819" stroke="#DADADA" stroke-width="0.5015" stroke-linecap="round"/>
<path d="M29.568 37.354L29.6612 37.6544L29.7544 37.9547" stroke="#DADADA" stroke-width="0.5015" stroke-linecap="round"/>
<path d="M29.7559 36.7242L29.6608 37.024L29.5656 37.3237" stroke="#DADADA" stroke-width="0.5015" stroke-linecap="round"/>
<path d="M29.754 35.4628L29.6608 35.7631L29.5676 36.0635" stroke="#DADADA" stroke-width="0.5015" stroke-linecap="round"/>
<path d="M29.568 36.0931L29.6612 36.3935L29.7544 36.6939" stroke="#DADADA" stroke-width="0.5015" stroke-linecap="round"/>
<path d="M29.568 34.8323L29.6612 35.1326L29.7544 35.433" stroke="#DADADA" stroke-width="0.5015" stroke-linecap="round"/>
<path d="M29.5681 34.8013L29.6612 34.5009L29.7543 34.2005" stroke="#DADADA" stroke-width="0.5015" stroke-linecap="round"/>
</svg>
