<svg width="430" height="756" viewBox="0 0 430 756" fill="none" xmlns="http://www.w3.org/2000/svg">
<path d="M0 755.5C-0.000131618 699.12 34.4867 603.637 98.5218 603.637C181.571 603.637 186.503 547.711 203.214 505.426C246.341 396.302 272.545 442.589 349.387 445.863C405.581 448.257 424.573 249.4 428.934 112.601V0C430.163 20.4448 430.536 62.3333 428.934 112.601V755.5H0Z" fill="#D9D9D9"/>
<path d="M46.5478 604.854C44.2234 604.294 39.8339 603.771 37.4803 608.541C34.4577 614.667 34.544 617.167 35.9041 619.605C37.7071 622.838 39.7757 624.555 49.4477 622.797C58.8829 621.082 56.5563 613.609 54.9659 610.913C52.4702 606.681 51.2557 605.99 46.5478 604.854Z" fill="#F5F5F5"/>
<path d="M34.47 661.668C33.369 661.402 31.2897 661.155 30.1749 663.414C28.7431 666.316 28.784 667.5 29.4283 668.655C30.2823 670.187 31.2622 671 35.8436 670.167C40.3129 669.355 39.2108 665.815 38.4575 664.538C37.2753 662.533 36.7 662.206 34.47 661.668Z" fill="#F5F5F5"/>
<path d="M354.926 452.892C357.495 452.272 362.347 451.695 364.948 456.967C368.289 463.737 368.194 466.5 366.69 469.196C364.698 472.769 362.411 474.666 351.721 472.723C341.293 470.827 343.864 462.568 345.622 459.588C348.381 454.91 349.723 454.147 354.926 452.892Z" fill="#F5F5F5"/>
<path d="M286.724 553.798C284.767 553.326 281.071 552.886 279.089 556.903C276.543 562.061 276.616 564.167 277.761 566.22C279.28 568.943 281.022 570.389 289.167 568.908C297.112 567.464 295.153 561.171 293.813 558.9C291.712 555.336 290.689 554.755 286.724 553.798Z" fill="#F5F5F5"/>
<path d="M365.012 671.145C360.783 670.124 352.796 669.174 348.513 677.853C343.013 688.999 343.17 693.548 345.645 697.986C348.926 703.868 352.69 706.992 370.289 703.793C387.457 700.672 383.224 687.075 380.33 682.168C375.788 674.468 373.579 673.212 365.012 671.145Z" fill="#F5F5F5"/>
</svg>
