<svg width="1346" height="240" viewBox="0 0 1346 240" fill="none" xmlns="http://www.w3.org/2000/svg">
<path d="M1329.96 140.657C1324.87 120.419 1308.3 95.7513 1265.41 102.913C1227.41 109.258 1174.61 211.014 1251.64 221.637C1326.79 232 1333.68 164.934 1329.96 140.657Z" fill="#F5F5F5"/>
<path d="M1203.93 98.7863C1201.52 90.1919 1193.97 79.6398 1174.95 82.3512C1158.1 84.7537 1135.37 127.388 1169.71 132.448C1203.2 137.384 1205.77 109.078 1203.93 98.7863Z" fill="#F5F5F5"/>
<path d="M1164.62 208.505C1170.66 211.432 1180.48 212.446 1188.91 200.39C1196.38 189.708 1184.5 155.661 1163.75 172.46C1143.5 188.847 1157.93 204.405 1164.62 208.505Z" fill="#F5F5F5"/>
<path d="M1263.88 78.8678C1268.99 74.2055 1273.8 65.0328 1265.87 51.6171C1258.84 39.7303 1222.41 36.742 1229.91 64.2541C1237.23 91.0923 1257.42 83.6541 1263.88 78.8678Z" fill="#F5F5F5"/>
<path d="M100.482 12.5089C68.1748 41.6175 27.2 -3.52529 8.51824 30.102C-15.4723 73.2851 17.7146 80.4822 28.5104 97.6755C42.8211 120.467 45.3039 142.458 122.074 130.063C196.963 117.971 183.916 51.8268 173.254 29.7021C162.458 11.8425 132.789 -16.5997 100.482 12.5089Z" fill="#F5F5F5"/>
<path d="M388.861 161.287C380.42 159.25 364.479 157.353 355.932 174.676C344.955 196.921 345.268 206 350.208 214.857C356.755 226.597 364.268 232.833 399.393 226.447C433.657 220.219 425.208 193.082 419.433 183.288C410.369 167.92 405.959 165.412 388.861 161.287Z" fill="#F5F5F5"/>
</svg>
